<svg width="450" height="260" viewBox="0 0 450 260" fill="none" xmlns="http://www.w3.org/2000/svg">
<rect x="0.5" y="0.5" width="449" height="259" rx="19.5" fill="#FBFAFC"/>
<path d="M241.813 153.647C245.063 153.647 247.813 151.022 247.813 147.647V111.647C247.813 108.397 245.063 105.647 241.813 105.647H189.813C186.438 105.647 183.813 108.397 183.813 111.647V147.647C183.813 151.022 186.438 153.647 189.813 153.647H241.813ZM197.813 112.647C201.563 112.647 204.813 115.897 204.813 119.647C204.813 123.522 201.563 126.647 197.813 126.647C193.938 126.647 190.813 123.522 190.813 119.647C190.813 115.897 193.938 112.647 197.813 112.647ZM191.813 145.647V139.647L200.688 130.772C201.313 130.147 202.188 130.147 202.813 130.772L209.813 137.647L226.688 120.772C227.313 120.147 228.188 120.147 228.813 120.772L239.813 131.647V145.647H191.813Z" fill="black"/>
<rect x="0.5" y="0.5" width="449" height="259" rx="19.5" stroke="black"/>
</svg>
